<?xml version="1.0" encoding="utf-8"?>
<!-- Generator: Adobe Illustrator 19.0.0, SVG Export Plug-In . SVG Version: 6.00 Build 0)  -->
<svg version="1.1" id="Layer_1" xmlns="http://www.w3.org/2000/svg" xmlns:xlink="http://www.w3.org/1999/xlink" x="0px" y="0px"
	 viewBox="394 -94 1400 980" style="enable-background:new 394 -94 1400 980;" xml:space="preserve">
<style type="text/css">
	.st0{fill:url(#SVGID_1_);}
	.st1{fill:#E6E7E8;}
	.st2{fill:#F1F2F2;}
	.st3{fill:#555655;}
	.st4{fill:#FFFFFF;}
	.st5{font-family:'MyriadPro-Semibold';}
	.st6{font-size:51.9571px;}
	.st7{font-size:21.5784px;}
	.st8{font-size:14px;}
	.st9{font-size:55.8377px;}
	.st10{fill:none;}
	.st11{fill:#594A42;}
	.st12{font-size:7.1439px;}
	.st13{font-size:21.676px;}
	.st14{font-size:14.779px;}
	.st15{font-size:17.7149px;}
	.st16{font-size:8.9172px;}
	.st17{fill:#BCBEC0;}
	.st18{fill:#D7137B;}
	.st19{font-size:43.5882px;}
	.st20{font-size:21.9451px;}
	.st21{font-size:14.9625px;}
	.st22{font-size:17.9348px;}
	.st23{font-size:9.0279px;}
	.st24{fill:none;stroke:#BCBEC0;stroke-miterlimit:10;}
	.st25{fill:#69BD45;}
	.st26{font-size:17.5197px;}
	.st27{font-size:8.8189px;}
	.st28{fill:#333333;}
</style>
<radialGradient id="SVGID_1_" cx="1097.75" cy="429.9624" r="984.972" gradientTransform="matrix(1 0 0 -0.7342 0 711.7284)" gradientUnits="userSpaceOnUse">
	<stop  offset="0" style="stop-color:#FFFFFF"/>
	<stop  offset="0.4219" style="stop-color:#FBFBFC"/>
	<stop  offset="0.6367" style="stop-color:#F3F4F4"/>
	<stop  offset="0.8048" style="stop-color:#E8E9EA"/>
	<stop  offset="0.9478" style="stop-color:#D9DADB"/>
	<stop  offset="1" style="stop-color:#D1D3D4"/>
</radialGradient>
<rect x="397.6" y="-94.1" class="st0" width="1400.3" height="980.3"/>
<g>
	<polygon class="st1" points="409,91.5 543.2,12.7 677.4,91.5 677.4,771.8 543.2,850.7 409,771.8 	"/>
	<polygon class="st2" points="430.8,117.8 565,39 699.2,117.8 699.2,798.1 565,877 430.8,798.1 	"/>
	<polygon class="st3" points="430.8,117.8 430.8,259.4 565,338.3 699.2,259.4 699.2,117.8 565,39 	"/>
	<polygon class="st3" points="430.8,656.5 430.8,798.1 565,877 699.2,798.1 699.2,656.5 565,577.7 	"/>
	<text transform="matrix(1 0 0 1 495.2024 181.6926)" class="st4 st5 st6">BASIC</text>
	<g>
		<text transform="matrix(1 0 0 1 498.7566 208.5363)" class="st4 st5 st7">EDIT PACKAGE</text>
	</g>
	<g>
		<text transform="matrix(1 0 0 1 486.1207 230.6814)" class="st4 st5 st8">Simple stylistic changes to a </text>
		<text transform="matrix(1 0 0 1 508.0207 247.4814)" class="st4 st5 st8">current Shopify store</text>
	</g>
	<text transform="matrix(1 0 0 1 495.3579 752.2404)" class="st4 st5 st9">$299</text>
	<g>
		<rect x="482.9" y="527.1" class="st10" width="172.6" height="46.7"/>
		<text transform="matrix(1 0 0 1 482.8767 532.1868)" class="st11 st5 st12">No additional pages created or products added. No </text>
		<text transform="matrix(1 0 0 1 482.8767 540.7869)" class="st11 st5 st12">changes to the code base - for that enquire about custom </text>
		<text transform="matrix(1 0 0 1 482.8767 549.2869)" class="st11 st5 st12">packages. Package applies to changes on an existing </text>
		<text transform="matrix(1 0 0 1 482.8767 557.8868)" class="st11 st5 st12">Shopify store, such as font styles, color scheme , basic </text>
		<text transform="matrix(1 0 0 1 482.8767 566.4868)" class="st11 st5 st12">image edit. Ask for further details before purchase</text>
	</g>
	<text transform="matrix(1 0 0 1 480.9978 408.6248)" class="st11 st5 st13">1-3</text>
	<text transform="matrix(1 0 0 1 480.9978 423.1223)" class="st11 st5 st14">days</text>
	<g>
		<text transform="matrix(1 0 0 1 549.4719 370.1408)" class="st11 st5 st15">MINOR EDITS</text>
	</g>
	<g>
		<text transform="matrix(1 0 0 1 549.4719 381.2043)" class="st11 st5 st16">Color schemes, fonts etc.</text>
	</g>
	<g>
		<text transform="matrix(1 0 0 1 549.4719 408.6252)" class="st11 st5 st15">SPEEDY</text>
	</g>
	<g>
		<text transform="matrix(1 0 0 1 549.4719 419.6926)" class="st11 st5 st16">Fast completion times</text>
	</g>
	<g>
		<text transform="matrix(1 0 0 1 549.4719 450.6848)" class="st11 st5 st15">PRODUCTS</text>
	</g>
	<g>
		<text transform="matrix(1 0 0 1 549.4719 461.7473)" class="st11 st5 st16">No products added</text>
	</g>
	<g>
		<text transform="matrix(1 0 0 1 549.4719 490.9563)" class="st11 st5 st15">PAGES</text>
	</g>
	<g>
		<text transform="matrix(1 0 0 1 549.4719 502.0188)" class="st11 st5 st16">No additional pages created</text>
	</g>
	<path class="st3" d="M495.3,354.8c-8.2,0-14.9,6.7-14.9,14.9s6.7,14.9,14.9,14.9c8.2,0,14.9-6.7,14.9-14.9S503.5,354.8,495.3,354.8
		z M494.7,380.1l-7.1-9.8l2.9-2.1l3.6,5.1l5.8-11.4l3.2,1.6L494.7,380.1z"/>
	<path class="st3" d="M495.3,434.9c-8.2,0-14.9,6.7-14.9,14.9s6.7,14.9,14.9,14.9c8.2,0,14.9-6.7,14.9-14.9
		C510.2,441.6,503.5,434.9,495.3,434.9z M502.1,454.1l-2.5,2.5l-4.3-4.3l-4.3,4.3l-2.5-2.5l4.3-4.3l-4.3-4.3l2.5-2.5l4.3,4.3
		l4.3-4.3l2.5,2.5l-4.3,4.3L502.1,454.1z"/>
	<path class="st3" d="M495.3,475.2c-8.2,0-14.9,6.7-14.9,14.9s6.7,14.9,14.9,14.9c8.2,0,14.9-6.7,14.9-14.9
		C510.2,481.8,503.5,475.2,495.3,475.2z M502.1,494.4l-2.5,2.5l-4.3-4.3l-4.3,4.3l-2.5-2.5l4.3-4.3l-4.3-4.3l2.5-2.5l4.3,4.3
		l4.3-4.3l2.5,2.5l-4.3,4.3L502.1,494.4z"/>
	<g>
		<rect x="468.6" y="347.6" class="st17" width="192.8" height="1.8"/>
	</g>
	<g>
		<rect x="468.6" y="388.1" class="st17" width="192.8" height="1.8"/>
	</g>
	<g>
		<rect x="468.6" y="428.6" class="st17" width="192.8" height="1.8"/>
	</g>
	<g>
		<rect x="468.6" y="469.1" class="st17" width="192.8" height="1.8"/>
	</g>
	<g>
		<rect x="468.6" y="509.6" class="st17" width="192.8" height="1.8"/>
	</g>
</g>
<g>
	<polygon class="st1" points="758.4,89.8 892.6,10.9 1026.8,89.8 1026.8,770 892.6,848.8 758.4,770 	"/>
	<polygon class="st2" points="778.3,114.9 912.5,36.1 1046.7,114.9 1046.7,795.3 912.5,874 778.3,795.3 	"/>
	<polygon class="st18" points="780.1,116.1 780.1,257.7 914.3,336.5 1048.5,257.7 1048.5,116.1 914.3,37.2 	"/>
	<polygon class="st18" points="780.1,654.8 780.1,796.3 914.3,875.1 1048.5,796.3 1048.5,654.8 914.3,576 	"/>
	<text transform="matrix(1 0 0 1 806.9458 178.8809)" class="st4 st5 st19">STANDARD</text>
	<g>
		<text transform="matrix(1 0 0 1 852.0278 205.7245)" class="st4 st5 st7">SMALL STORE</text>
	</g>
	<g>
		<text transform="matrix(1 0 0 1 807.516 228.8887)" class="st4 st5 st8">Quick turnaround, upto 20 products</text>
		<text transform="matrix(1 0 0 1 871.416 245.6887)" class="st4 st5 st8">and 1-6 pages</text>
	</g>
	<text transform="matrix(1 0 0 1 851.0093 750.4469)" class="st4 st5 st9">$799</text>
	<g>
		<rect x="825.2" y="525" class="st10" width="174.7" height="35.8"/>
		<text transform="matrix(1 0 0 1 825.1597 530.1266)" class="st11 st5 st12">No changes to the code base - for that enquire about </text>
		<text transform="matrix(1 0 0 1 825.1597 538.7266)" class="st11 st5 st12">custom packages. Package refers to creation of a basic </text>
		<text transform="matrix(1 0 0 1 825.1597 547.2266)" class="st11 st5 st12">Shopify store, or modifying an existing store. Ask for </text>
		<text transform="matrix(1 0 0 1 825.1597 555.8266)" class="st11 st5 st12">further details before purchase.</text>
	</g>
	<text transform="matrix(1 0 0 1 833.3564 451.6938)" class="st11 st5 st20">3-5</text>
	<text transform="matrix(1 0 0 1 833.9564 466.3733)" class="st11 st5 st21">days</text>
	<g>
		<text transform="matrix(1 0 0 1 892.5805 369.7988)" class="st11 st5 st22">PRODUCTS</text>
	</g>
	<g>
		<text transform="matrix(1 0 0 1 892.5805 381.002)" class="st11 st5 st23">Upto 20 products added</text>
	</g>
	<g>
		<text transform="matrix(1 0 0 1 892.5805 408.7608)" class="st11 st5 st22">PAGES</text>
	</g>
	<g>
		<text transform="matrix(1 0 0 1 892.5805 419.9658)" class="st11 st5 st23">We will create uptp 6 pages</text>
	</g>
	<g>
		<text transform="matrix(1 0 0 1 892.5805 451.3389)" class="st11 st5 st22">SPEEDY</text>
	</g>
	<g>
		<text transform="matrix(1 0 0 1 892.5805 462.544)" class="st11 st5 st23">Fast completion times</text>
	</g>
	<g>
		<text transform="matrix(1 0 0 1 892.5805 492.1123)" class="st11 st5 st22">BLOG SETUP</text>
	</g>
	<g>
		<text transform="matrix(1 0 0 1 892.5805 503.3174)" class="st11 st5 st23">See PRO package for blog</text>
	</g>
	<path class="st18" d="M848.7,356c-8.3,0-15.1,6.7-15.1,15.1c0,8.3,6.7,15.1,15.1,15.1c8.3,0,15.1-6.7,15.1-15.1S857,356,848.7,356z
		 M848.1,381.6l-7.2-9.9l2.9-2.1l3.7,5.1l5.9-11.5l3.2,1.6L848.1,381.6z"/>
	<path class="st18" d="M848.7,477.9c-8.3,0-15.1,6.7-15.1,15.1c0,8.3,6.7,15.1,15.1,15.1c8.3,0,15.1-6.7,15.1-15.1
		C863.8,484.6,857,477.9,848.7,477.9z M855.6,497.3l-2.6,2.6l-4.3-4.3l-4.3,4.3l-2.6-2.6l4.3-4.3l-4.3-4.3l2.6-2.6l4.3,4.3l4.3-4.3
		l2.6,2.6l-4.3,4.3L855.6,497.3z"/>
	<line class="st24" x1="810.7" y1="348" x2="1005.9" y2="348"/>
	<line class="st24" x1="810.7" y1="388.9" x2="1005.9" y2="388.9"/>
	<line class="st24" x1="810.7" y1="429.9" x2="1005.9" y2="429.9"/>
	<line class="st24" x1="810.7" y1="470.9" x2="1005.9" y2="470.9"/>
	<line class="st24" x1="810.7" y1="511.9" x2="1005.9" y2="511.9"/>
	<path class="st18" d="M848.7,395.5c-8.3,0-15.1,6.7-15.1,15.1c0,8.4,6.7,15.1,15.1,15.1c8.3,0,15.1-6.7,15.1-15.1
		S857,395.5,848.7,395.5z M848.1,421.1l-7.2-9.9l2.9-2.1l3.7,5.1l5.9-11.5l3.2,1.6L848.1,421.1z"/>
</g>
<g>
	<polygon class="st1" points="1464.1,89.6 1598.3,10.8 1732.5,89.6 1732.5,770 1598.3,848.8 1464.1,770 	"/>
	<polygon class="st2" points="1485.8,115.9 1620,37.1 1754.2,115.9 1754.2,796.3 1620,875.2 1485.8,796.3 	"/>
	<polygon class="st25" points="1485.8,115.9 1485.8,257.5 1620,336.3 1754.2,257.5 1754.2,115.9 1620,37.1 	"/>
	<polygon class="st25" points="1485.8,654.7 1485.8,796.3 1620,875.2 1754.2,796.3 1754.2,654.7 1620,575.9 	"/>
	<text transform="matrix(1 0 0 1 1524.6624 179.8219)" class="st4 st5 st19">MANAGER</text>
	<g>
		<text transform="matrix(1 0 0 1 1552.3188 206.6624)" class="st4 st5 st7">STORE KEEPER</text>
	</g>
	<text transform="matrix(1 0 0 1 1543.4688 750.3657)" class="st4 st5 st9">$2499</text>
	<g>
		<rect x="1538.8" y="523" class="st10" width="170.7" height="34.9"/>
		<text transform="matrix(1 0 0 1 1538.8096 528.0964)" class="st11 st5 st12">Package is for ongoing shop management billed </text>
		<text transform="matrix(1 0 0 1 1538.8096 536.6964)" class="st11 st5 st12">monthly. Does not include page creation or site </text>
		<text transform="matrix(1 0 0 1 1538.8096 545.1964)" class="st11 st5 st12">modifications. Ask for further details before purchase.</text>
	</g>
	<g>
		<text transform="matrix(1 0 0 1 1604.6719 367.78)" class="st11 st5 st26">EMAIL</text>
	</g>
	<g>
		<text transform="matrix(1 0 0 1 1604.6719 378.7204)" class="st11 st5 st27">Email and customer management</text>
	</g>
	<g>
		<text transform="matrix(1 0 0 1 1604.6719 405.8415)" class="st11 st5 st26">ORDERS</text>
	</g>
	<g>
		<text transform="matrix(1 0 0 1 1604.6719 416.7839)" class="st11 st5 st27">Order processing and handling</text>
	</g>
	<g>
		<text transform="matrix(1 0 0 1 1604.6719 447.4343)" class="st11 st5 st26">SITE</text>
	</g>
	<g>
		<text transform="matrix(1 0 0 1 1604.6719 458.3747)" class="st11 st5 st27">Site maintenance and upkeep</text>
	</g>
	<g>
		<text transform="matrix(1 0 0 1 1604.6719 487.2654)" class="st11 st5 st26">PRODUCTS</text>
	</g>
	<g>
		<text transform="matrix(1 0 0 1 1604.6719 498.2058)" class="st11 st5 st27">Product adding and editing</text>
	</g>
	<path class="st25" d="M1551.1,352.5c-8.1,0-14.7,6.6-14.7,14.7s6.6,14.7,14.7,14.7c8.1,0,14.7-6.6,14.7-14.7
		S1559.2,352.5,1551.1,352.5z M1550.5,377.5l-7-9.7l2.9-2.1l3.6,5l5.7-11.3l3.1,1.6L1550.5,377.5z"/>
	<path class="st25" d="M1551.1,392c-8.1,0-14.7,6.6-14.7,14.7s6.6,14.7,14.7,14.7c8.1,0,14.7-6.6,14.7-14.7
		C1565.8,398.6,1559.2,392,1551.1,392z M1550.5,417l-7-9.7l2.9-2.1l3.6,5l5.7-11.3l3.1,1.6L1550.5,417z"/>
	<path class="st25" d="M1551.1,431.4c-8.1,0-14.7,6.6-14.7,14.7c0,8.1,6.6,14.7,14.7,14.7c8.1,0,14.7-6.6,14.7-14.7
		S1559.2,431.4,1551.1,431.4z M1550.5,456.5l-7-9.7l2.9-2.1l3.6,5l5.7-11.3l3.1,1.6L1550.5,456.5z"/>
	<path class="st25" d="M1551.1,470.9c-8.1,0-14.7,6.6-14.7,14.7s6.6,14.7,14.7,14.7c8.1,0,14.7-6.6,14.7-14.7
		S1559.2,470.9,1551.1,470.9z M1550.5,495.9l-7-9.7l2.9-2.1l3.6,5l5.7-11.3l3.1,1.6L1550.5,495.9z"/>
	<line class="st24" x1="1524.7" y1="346.3" x2="1715.4" y2="346.3"/>
	<line class="st24" x1="1524.7" y1="386.4" x2="1715.4" y2="386.4"/>
	<line class="st24" x1="1524.7" y1="426.4" x2="1715.4" y2="426.4"/>
	<line class="st24" x1="1524.7" y1="466.5" x2="1715.4" y2="466.5"/>
	<line class="st24" x1="1524.7" y1="506.5" x2="1715.4" y2="506.5"/>
	<g>
		<text transform="matrix(1 0 0 1 1542.364 228.8073)" class="st4 st5 st8">We’ll handle the day-to-day </text>
		<text transform="matrix(1 0 0 1 1513.4639 245.6073)" class="st4 st5 st8">running of the store and maintenance</text>
	</g>
	<g>
		<text transform="matrix(1 0 0 1 1692.1335 715.5053)" class="st4 st5 st26">mo</text>
	</g>
</g>
<g>
	<polygon class="st1" points="1115.2,89.8 1249.4,10.9 1383.6,89.8 1383.6,770 1249.4,848.8 1115.2,770 	"/>
	<polygon class="st2" points="1137,116.1 1271.1,37.2 1405.3,116.1 1405.3,796.3 1271.1,875.1 1137,796.3 	"/>
	<polygon class="st28" points="1137,116.1 1137,257.7 1271.1,336.5 1405.3,257.7 1405.3,116.1 1271.1,37.2 	"/>
	<polygon class="st28" points="1137,654.8 1137,796.3 1271.1,875.1 1405.3,796.3 1405.3,654.8 1271.1,576 	"/>
	<text transform="matrix(1 0 0 1 1227.1503 179.9032)" class="st4 st5 st19">PRO</text>
	<g>
		<text transform="matrix(1 0 0 1 1203.4043 206.7437)" class="st4 st5 st7">MEDIUM STORE</text>
	</g>
	<text transform="matrix(1 0 0 1 1194.5541 750.447)" class="st4 st5 st9">$1399</text>
	<g>
		<rect x="1189.9" y="522.3" class="st10" width="170.7" height="34.9"/>
		<text transform="matrix(1 0 0 1 1189.8954 527.2897)" class="st11 st5 st12">No changes to the code base - for that enquire about </text>
		<text transform="matrix(1 0 0 1 1189.8954 535.8897)" class="st11 st5 st12">custom packages. Package refers to creation of a medium </text>
		<text transform="matrix(1 0 0 1 1189.8954 544.3897)" class="st11 st5 st12">sized Shopify store, or modifying an existing one. Ask for </text>
		<text transform="matrix(1 0 0 1 1189.8954 552.9897)" class="st11 st5 st12">further details before purchase.</text>
	</g>
	<g>
		<text transform="matrix(1 0 0 1 1255.7573 367.8613)" class="st11 st5 st26">PRODUCTS</text>
	</g>
	<g>
		<text transform="matrix(1 0 0 1 1255.7573 378.8018)" class="st11 st5 st27">Lorem ipsum dolor sit amet</text>
	</g>
	<g>
		<text transform="matrix(1 0 0 1 1255.7573 405.9229)" class="st11 st5 st26">PAGES</text>
	</g>
	<g>
		<text transform="matrix(1 0 0 1 1255.7573 416.8652)" class="st11 st5 st27">Lorem ipsum dolor sit amet</text>
	</g>
	<g>
		<text transform="matrix(1 0 0 1 1255.7573 447.5156)" class="st11 st5 st26">BLOG SETUP</text>
	</g>
	<g>
		<text transform="matrix(1 0 0 1 1255.7573 458.4561)" class="st11 st5 st27">Lorem ipsum dolor sit amet</text>
	</g>
	<path class="st28" d="M1202.2,352.7c-8.1,0-14.7,6.6-14.7,14.7s6.6,14.7,14.7,14.7c8.1,0,14.7-6.6,14.7-14.7
		S1210.3,352.7,1202.2,352.7z M1201.6,377.7l-7-9.7l2.9-2.1l3.6,5l5.7-11.3l3.1,1.6L1201.6,377.7z"/>
	<path class="st28" d="M1202.2,392.2c-8.1,0-14.7,6.6-14.7,14.7s6.6,14.7,14.7,14.7c8.1,0,14.7-6.6,14.7-14.7
		C1216.9,398.8,1210.3,392.2,1202.2,392.2z M1201.6,417.2l-7-9.7l2.9-2.1l3.6,5l5.7-11.3l3.1,1.6L1201.6,417.2z"/>
	<path class="st28" d="M1202.2,431.6c-8.1,0-14.7,6.6-14.7,14.7c0,8.1,6.6,14.7,14.7,14.7c8.1,0,14.7-6.6,14.7-14.7
		S1210.3,431.6,1202.2,431.6z M1201.6,456.6l-7-9.7l2.9-2.1l3.6,5l5.7-11.3l3.1,1.6L1201.6,456.6z"/>
	<line class="st24" x1="1175.8" y1="346.5" x2="1366.5" y2="346.5"/>
	<line class="st24" x1="1175.8" y1="386.6" x2="1366.5" y2="386.6"/>
	<line class="st24" x1="1175.8" y1="426.6" x2="1366.5" y2="426.6"/>
	<line class="st24" x1="1175.8" y1="466.6" x2="1366.5" y2="466.6"/>
	<line class="st24" x1="1175.8" y1="506.6" x2="1366.5" y2="506.6"/>
	<g>
		<text transform="matrix(1 0 0 1 1189.1936 228.8887)" class="st4 st5 st8">Creation of upto 12 pages, as </text>
		<text transform="matrix(1 0 0 1 1161.8936 245.6887)" class="st4 st5 st8">many as 50 products and blog creation</text>
	</g>
	<text transform="matrix(1 0 0 1 1187.4497 486.0216)" class="st11 st5 st20">1-3</text>
	<text transform="matrix(1 0 0 1 1183.0497 500.7014)" class="st11 st5 st21">weeks</text>
	<g>
		<text transform="matrix(1 0 0 1 1257.3738 488.5126)" class="st11 st5 st22">SPEEDY</text>
	</g>
	<g>
		<text transform="matrix(1 0 0 1 1257.3738 499.7177)" class="st11 st5 st23">Fast completion times</text>
	</g>
</g>
<text transform="matrix(1 0 0 1 1004.8626 -4.74)" class="st28 st5 st19">SERVICES</text>
</svg>
